Coordinates
version=1
nRows=5
nColumns=40
inDegrees=yes

Units are S.I. units (second, meters, Newtons, ...)
Angles are in degrees.

endheader
time	pelvis_tilt	pelvis_list	pelvis_rotation	pelvis_tx	pelvis_ty	pelvis_tz	hip_flexion_r	hip_adduction_r	hip_rotation_r	knee_angle_r	knee_angle_r_beta	ankle_angle_r	subtalar_angle_r	mtp_angle_r	hip_flexion_l	hip_adduction_l	hip_rotation_l	knee_angle_l	knee_angle_l_beta	ankle_angle_l	subtalar_angle_l	mtp_angle_l	lumbar_extension	lumbar_bending	lumbar_rotation	arm_flex_r	arm_add_r	arm_rot_r	elbow_flex_r	pro_sup_r	wrist_flex_r	wrist_dev_r	arm_flex_l	arm_add_l	arm_rot_l	elbow_flex_l	pro_sup_l	wrist_flex_l	wrist_dev_l
     15.95142857	     -6.44617283	     -6.51265204	      4.19921691	      0.97858691	      0.91253483	      0.47323686	     -1.70693765	      5.05053797	    -18.99203540	      8.12076052	      8.12076052	     18.20568834	      6.46918208	     -1.26801188	     36.62734550	     -7.28571887	      1.57412190	     18.31268067	     18.31268067	      6.10688776	     -7.14456542	     11.77914500	     -9.40210170	      5.71701654	      5.39956025	     43.50690110	    -17.42291953	      1.92648436	     92.30627240	     44.29455115	      0.00000000	      0.00000000	    -20.69627441	     -6.55437977	      5.31443882	     29.30801807	     44.93702593	      0.00000000	      0.00000000
     15.96285714	     -6.49305914	     -6.45516848	      3.95316683	      0.98071359	      0.91066047	      0.47159597	     -2.14860333	      4.79201938	    -18.68501510	      8.62484559	      8.62484559	     18.88709122	      6.34702941	     -1.05727793	     36.17284263	     -7.21101402	      0.61123469	     18.26469479	     18.26469479	      4.87570351	     -7.79028324	     11.08625098	     -9.09908376	      5.66012207	      5.01566891	     44.57365007	    -16.44139286	      2.02851320	     93.99400996	     44.26372813	      0.00000000	      0.00000000	    -21.60539825	     -6.30183019	      5.80855568	     28.91836538	     44.86623730	      0.00000000	      0.00000000
     15.97428571	     -6.47108594	     -6.39421586	      3.74622703	      0.98288932	      0.90891645	      0.46989328	     -2.58661130	      4.50453241	    -18.35458806	      9.28501795	      9.28501795	     19.65135954	      6.16545235	     -0.80812762	     35.78163799	     -7.13433771	     -0.10730989	     18.63798692	     18.63798692	      3.43354572	     -8.70806099	      9.96610450	     -8.88099118	      5.56467241	      4.94599747	     45.43027950	    -15.98395028	      2.11381209	     95.58713554	     44.23372525	      0.00000000	      0.00000000	    -22.22954511	     -6.24150850	      6.10324378	     28.75866973	     44.82826709	      0.00000000	      0.00000000
     15.98571429	     -6.35202019	     -6.24247499	      3.54845863	      0.98506151	      0.90749260	      0.46805740	     -3.08006992	      4.09526654	    -18.00432648	     10.02703965	     10.02703965	     20.26149633	      5.90718344	     -0.76845157	     35.45324002	     -7.00913541	     -0.69560272	     19.49962515	     19.49962515	      2.33371973	     -9.61518275	      9.27501415	     -8.79457677	      5.38077738	      4.84408402	     46.21899603	    -15.54859312	      2.13904765	     96.85416178	     44.20556833	      0.00000000	      0.00000000	    -22.58628556	     -6.17036907	      6.25426115	     28.57396225	     44.80844563	      0.00000000	      0.00000000
     15.99714286	     -6.31292340	     -6.13235757	      3.34210598	      0.98730340	      0.90616730	      0.46616303	     -3.28384093	      3.67338391	    -17.45747285	     11.19009721	     11.19009721	     21.22389924	      5.31900588	      0.40757549	     34.91958933	     -6.84950699	     -0.83125603	     19.77683522	     19.77683522	     -0.74677973	    -11.64249342	      4.03846523	     -8.64423851	      5.20139745	      5.24742743	     46.06358382	    -15.74243881	      1.83312702	     99.83095820	     44.19816925	      0.00000000	      0.00000000	    -22.53525925	     -6.31010091	      7.04966389	     28.11921718	     44.75857323	      0.00000000	      0.00000000
